<?xml version="1.0" encoding="UTF-8" standalone="no"?>
<!-- Created with Inkscape (http://www.inkscape.org/) -->

<svg
   width="1200"
   height="900"
   viewBox="0 0 317.49999 238.125"
   version="1.1"
   id="svg1"
   inkscape:version="1.4.2 (2aeb623e1d, 2025-05-12)"
   sodipodi:docname="placeholder_message_set.svg"
   xml:space="preserve"
   xmlns:inkscape="http://www.inkscape.org/namespaces/inkscape"
   xmlns:sodipodi="http://sodipodi.sourceforge.net/DTD/sodipodi-0.dtd"
   xmlns="http://www.w3.org/2000/svg"
   xmlns:svg="http://www.w3.org/2000/svg"
   xmlns:rdf="http://www.w3.org/1999/02/22-rdf-syntax-ns#"
   xmlns:cc="http://creativecommons.org/ns#"
   xmlns:dc="http://purl.org/dc/elements/1.1/"><title
     id="title1">Food  Blog Image Placeholder</title><sodipodi:namedview
     id="namedview1"
     pagecolor="#ffffff"
     bordercolor="#000000"
     borderopacity="0.25"
     inkscape:showpageshadow="2"
     inkscape:pageopacity="0.0"
     inkscape:pagecheckerboard="0"
     inkscape:deskcolor="#d1d1d1"
     inkscape:document-units="px"
     inkscape:zoom="0.20738996"
     inkscape:cx="9274.7983"
     inkscape:cy="479.77251"
     inkscape:window-width="1920"
     inkscape:window-height="1011"
     inkscape:window-x="0"
     inkscape:window-y="32"
     inkscape:window-maximized="1"
     inkscape:current-layer="g11"
     showguides="false"><inkscape:page
       x="0"
       y="0"
       width="317.5"
       height="238.125"
       id="page3"
       margin="0"
       bleed="0"
       inkscape:export-filename="../9feda3c3/placeholder_4.png"
       inkscape:export-xdpi="96"
       inkscape:export-ydpi="96" /><inkscape:page
       x="327.5"
       y="0"
       width="317.5"
       height="238.125"
       id="page4"
       margin="0"
       bleed="0" /><inkscape:page
       x="655"
       y="0"
       width="317.5"
       height="238.125"
       id="page5"
       margin="0"
       bleed="0" /><inkscape:page
       x="982.5"
       y="0"
       width="317.5"
       height="238.125"
       id="page6"
       margin="0"
       bleed="0" /><inkscape:page
       x="1310"
       y="0"
       width="317.5"
       height="238.125"
       id="page13"
       margin="0"
       bleed="0" /><inkscape:page
       x="1637.5"
       y="0"
       width="317.5"
       height="238.125"
       id="page14"
       margin="0"
       bleed="0"
       inkscape:export-filename="../d10bed9a/placeholder_8.png"
       inkscape:export-xdpi="96"
       inkscape:export-ydpi="96" /><inkscape:page
       x="1965"
       y="0"
       width="317.5"
       height="238.125"
       id="page15"
       margin="0"
       bleed="0" /><inkscape:page
       x="2292.5"
       y="0"
       width="317.5"
       height="238.125"
       id="page16"
       margin="0"
       bleed="0"
       inkscape:export-filename="../9c1badea/placeholder_5.png"
       inkscape:export-xdpi="96"
       inkscape:export-ydpi="96" /><inkscape:page
       x="2620"
       y="0"
       width="317.5"
       height="238.125"
       id="page1"
       margin="0"
       bleed="0" /></sodipodi:namedview><defs
     id="defs1"><rect
       x="300.69921"
       y="345.6"
       width="509.71907"
       height="416.8222"
       id="rect2" /><rect
       x="300.69921"
       y="345.6"
       width="654.4543"
       height="429.63469"
       id="rect3" /><rect
       x="300.69921"
       y="345.6"
       width="623.09668"
       height="425.71498"
       id="rect6" /><rect
       x="300.69921"
       y="345.6"
       width="626.66641"
       height="424.25879"
       id="rect7" /></defs><g
     inkscape:label="Layer 1"
     inkscape:groupmode="layer"
     id="layer1"><path
       id="rect1"
       style="opacity:1;fill:#ffffff;stroke:#ff0000;stroke-width:0"
       d="M 0,0 H 317.5 V 238.125 H 0 Z"
       sodipodi:nodetypes="ccccc" /><text
       xml:space="preserve"
       transform="matrix(0.26458333,0,0,0.26458333,11.877007,-37.363721)"
       id="text1"
       style="font-style:normal;font-variant:normal;font-weight:bold;font-stretch:normal;font-size:64px;line-height:1.2;font-family:Montserrat;-inkscape-font-specification:'Montserrat Bold';text-align:center;letter-spacing:0.09px;word-spacing:1px;writing-mode:lr-tb;direction:ltr;white-space:pre;shape-inside:url(#rect2);display:inline;opacity:1;fill:#1a1a1a;stroke:#ff0000;stroke-width:0"
       x="297.51935"
       y="0"><tspan
         x="363.64497"
         y="402.8216"
         id="tspan3"><tspan
           dx="0 0 0 0 0 0 0 -0.99998844 0.9999963 0 -1.0000037"
           id="tspan2">Serving up  </tspan></tspan><tspan
         x="305.14917"
         y="479.62158"
         id="tspan7"><tspan
           dx="0 0 0 0 0 0 0 0 0 -1.0000037 0.9999963"
           id="tspan6">delicious soon!</tspan></tspan></text><path
       id="path3"
       style="opacity:1;fill:#ffffff;stroke:#ff0000;stroke-width:0"
       d="m 327.50001,-1.1500001e-6 h 317.5 V 238.125 h -317.5 z" /><text
       xml:space="preserve"
       transform="matrix(0.26458333,0,0,0.26458333,319.39643,-37.990266)"
       id="text3"
       style="font-style:normal;font-variant:normal;font-weight:bold;font-stretch:normal;font-size:64px;line-height:1.2;font-family:Montserrat;-inkscape-font-specification:'Montserrat Bold';text-align:center;letter-spacing:0.09px;word-spacing:1px;writing-mode:lr-tb;direction:ltr;white-space:pre;shape-inside:url(#rect3);display:inline;opacity:1;fill:#1a1a1a;stroke:#ff0000;stroke-width:0"
       x="297.51935"
       y="0"><tspan
         x="301.72633"
         y="402.8216"
         id="tspan21"><tspan
           dx="0 0 0 0 0 -1.0000037 0.9999963 0 0 0 0 -1.0000037 0.9999963 0 -1.0000037 0.9999963 0 0 -1.0000342"
           id="tspan8">Fresh batch of yum </tspan></tspan><tspan
         x="345.61229"
         y="479.62158"
         id="tspan23"><tspan
           dx="0 0 0 0 0 0 -1.0000037 1.0000116 0 0 0 0 -1.0000037 1.0000268"
           id="tspan22">coming right up!</tspan></tspan></text><g
       id="g11"
       inkscape:label="4"><path
         id="path19"
         style="fill:#ffffff;stroke:#ff0000;stroke-width:0"
         d="M 2292.5,-2.6e-5 H 2610 V 238.125 h -317.5 z" /><path
         id="path7"
         style="opacity:1;fill:#ffffff;stroke:#ff0000;stroke-width:0"
         d="M 982.50003,0.52916168 H 1300 V 238.65417 H 982.50003 Z" /><g
         id="g8"
         transform="translate(1.4496015e-6,-31.924654)"><text
           xml:space="preserve"
           transform="matrix(0.26458333,0,0,0.26458333,978.0727,-5.4390674)"
           id="text7"
           style="font-style:normal;font-variant:normal;font-weight:bold;font-stretch:normal;font-size:64px;line-height:1.2;font-family:Montserrat;-inkscape-font-specification:'Montserrat Bold';text-align:center;letter-spacing:0.09px;word-spacing:1px;writing-mode:lr-tb;direction:ltr;white-space:pre;shape-inside:url(#rect7);display:inline;opacity:1;fill:#1a1a1a;stroke:#ff0000;stroke-width:0"
           x="297.51935"
           y="0"><tspan
             x="318.06572"
             y="402.8216"
             id="tspan25"><tspan
               dx="0 0 0 -0.99999607 0.9999963 0 0 0 -1.0000037 0.9999963 -1.0000037 0.9999963 0 0 0 0 -0.99997318"
               id="tspan24">BRB with a brand </tspan></tspan><tspan
             x="418.29866"
             y="479.62158"
             id="tspan27"><tspan
               dx="0 0 0 -0.99999607 0.9999963"
               id="tspan26">new recipe!</tspan></tspan></text><path
           style="fill:#000000"
           d="m 1104.9094,210.00727 c -2.5357,-1.62254 -4.5014,-3.94875 -6.7385,-5.93823 -0.3776,-0.33443 -0.5345,-0.49964 -0.6277,-0.66095 -0.168,-0.29107 -0.2437,-0.55666 -0.2437,-0.85561 0,-0.77746 0.5418,-1.43962 1.4242,-1.74073 l 0.2604,-0.0889 6.1989,-0.0165 6.1988,-0.0165 -0.4546,-0.55184 c -3.0834,-3.74256 -5.232,-8.16932 -6.4444,-13.27724 -0.8701,-3.66611 -1.2909,-7.52854 -1.3611,-12.49397 -0.021,-1.51964 -0.017,-1.71995 0.041,-1.90962 0.188,-0.61798 0.6623,-1.07288 1.3706,-1.31455 l 0.2604,-0.0889 29.4313,-0.008 c 26.1948,-0.007 29.4569,-0.003 29.665,0.0416 0.7805,0.16686 1.3858,0.68719 1.5938,1.37013 0.058,0.19109 0.062,0.41209 0.041,2.25094 l -0.024,2.03904 0.3777,-0.30835 c 2.2345,-1.82386 4.8034,-2.91224 7.5064,-3.18028 0.6494,-0.0644 1.9856,-0.0459 2.59,0.0358 2.1174,0.28631 4.019,1.11343 5.539,2.40923 3.2918,2.80605 4.4991,7.51355 3.1334,12.21721 -1.0346,3.56349 -3.3869,6.69515 -6.5357,8.70121 -3.6846,2.34746 -8.0077,2.81336 -11.6136,1.25163 -1.7774,-0.76975 -3.3262,-2.06106 -4.3835,-3.65474 l -0.2673,-0.40278 -0.2972,0.56886 c -1.0657,2.03979 -2.4517,4.07391 -4.0041,5.87634 l -0.3691,0.42855 6.359,0.0165 6.359,0.0165 0.2297,0.0738 c 0.3522,0.11311 0.6269,0.2684 0.8782,0.49639 0.645,0.58501 0.7726,1.39436 0.3361,2.13051 -0.093,0.15669 -0.3116,0.36628 -1.0335,0.99069 -2.2105,1.90589 -4.1774,4.1343 -6.7182,5.60272 -1.9323,1.11675 -3.9971,2.00447 -6.1305,2.65675 -4.2595,1.30233 -5.9521,1.47383 -23.4677,1.446 -7.5756,0.0485 -15.1367,0.29883 -22.5549,-1.45513 -2.4278,-0.60444 -4.6101,-1.4325 -6.5246,-2.65758 z m 54.4311,-1.66884 c 1.5576,-0.76325 2.7856,-1.96453 4.3321,-3.35541 l 0.5948,-0.53502 c -10.1102,1.74503 -20.2906,2.19601 -30.4749,2.18207 -9.809,-0.0134 -19.4119,-1.00768 -29.3461,-2.18207 l 0.4806,0.46152 c 1.0567,1.01478 2.7729,2.36927 3.6495,2.89683 6.5999,3.97198 16.8252,3.03354 25.333,3.12342 8.5204,0.09 19.2167,0.4538 25.431,-2.59134 z m -0.5647,-18.17776 c 1.2934,-3.36475 1.9976,-7.09589 2.2684,-12.01923 0.043,-0.77129 0.1152,-2.74088 0.116,-3.13998 l 5e-4,-0.239 h -26.8409 -26.8409 l 0.024,0.61811 c 0.059,1.51946 0.1039,2.42255 0.1576,3.17294 0.5568,7.78648 2.7231,13.2673 5.9898,18.34387 1.401,2.17715 2.709,3.95635 4.4781,5.50794 0,0 10.5366,1.14437 15.8269,1.19013 5.8368,0.0505 17.482,-1.0108 17.482,-1.0108 3.4142,-4.36915 5.0245,-6.40402 7.3385,-12.42398 z m 13.519,4.79612 c 1.8116,-0.36352 3.4764,-1.26465 4.9691,-2.68959 1.5448,-1.47463 2.7162,-3.48698 3.2556,-5.59298 0.2459,-0.9596 0.2937,-1.37124 0.2942,-2.53304 3e-4,-0.85025 -0.013,-1.13165 -0.07,-1.45049 -0.2566,-1.45252 -0.758,-2.61611 -1.5438,-3.5828 -0.9339,-1.14891 -2.2346,-1.89384 -3.7122,-2.12597 -0.4914,-0.0772 -1.5064,-0.077 -1.9991,4.2e-4 -2.2886,0.35963 -4.431,1.6406 -6.1564,3.68097 -2.1014,2.48484 -3.0952,5.89991 -2.5712,8.83492 0.5077,2.84318 2.3333,4.89402 4.842,5.43925 0.5208,0.11319 0.718,0.12838 1.5101,0.11631 0.6466,-0.01 0.8164,-0.0238 1.1812,-0.097 z m -37.0949,-25.07487 c -0.2113,-0.0302 -0.5378,-0.15936 -0.6838,-0.27059 -0.053,-0.0406 -0.2378,-0.21485 -0.41,-0.38709 -1.4953,-1.49637 -2.4677,-3.04238 -2.8303,-4.49981 -0.098,-0.39514 -0.1068,-0.48767 -0.108,-1.18676 0,-0.66617 0.01,-0.80423 0.089,-1.13732 0.2317,-0.97428 0.7765,-1.98636 1.6061,-2.98339 0.3916,-0.47074 0.7336,-0.83341 1.7677,-1.87448 1.4045,-1.41415 1.815,-1.89793 2.2079,-2.60246 0.3753,-0.67285 0.4994,-1.19753 0.426,-1.80045 -0.1454,-1.1934 -0.9073,-2.32804 -2.6976,-4.01724 -0.1747,-0.16482 -0.3664,-0.37848 -0.426,-0.47481 -0.099,-0.15957 -0.1084,-0.20591 -0.1084,-0.52128 0,-0.30988 0.011,-0.36525 0.1052,-0.52855 0.2799,-0.48506 0.9188,-0.77465 1.5241,-0.6908 0.3677,0.051 0.6176,0.17201 0.9355,0.45317 0.7445,0.65855 1.651,1.62784 2.1405,2.28886 0.6132,0.8281 1.1111,1.83056 1.3231,2.66395 0.077,0.30461 0.088,0.43909 0.088,1.12083 3e-4,0.73446 -0.01,0.79505 -0.1084,1.16643 -0.3581,1.29015 -1.0605,2.36384 -2.5282,3.86433 -0.2287,0.23378 -0.6107,0.6179 -0.8489,0.85361 -1.664,1.64649 -2.3348,2.58038 -2.554,3.55529 -0.084,0.37236 -0.075,0.9785 0.02,1.3741 0.2429,1.01446 0.9343,2.08547 2.1735,3.36665 0.4169,0.43099 0.467,0.49796 0.5358,0.71559 0.1166,0.36885 0.026,0.7724 -0.245,1.08615 -0.3051,0.35383 -0.866,0.5414 -1.3937,0.46607 z m 7.9441,6.1e-4 c -0.2741,-0.0393 -0.5867,-0.17422 -0.7743,-0.33425 -0.258,-0.22008 -0.8458,-0.84451 -1.2467,-1.32445 -2.2383,-2.67956 -2.6464,-5.10218 -1.2616,-7.48824 0.3073,-0.52952 0.6366,-0.98595 1.1043,-1.53062 0.3068,-0.35734 0.6337,-0.69723 2.0358,-2.11661 1.2721,-1.28792 1.7759,-1.97286 2.0697,-2.81403 0.138,-0.39532 0.1717,-0.99051 0.08,-1.40705 -0.245,-1.10716 -1.0653,-2.26898 -2.6154,-3.704 -0.5217,-0.48293 -0.6742,-0.80799 -0.5821,-1.2404 0.1716,-0.80585 1.1551,-1.25104 2.0332,-0.9204 0.2153,0.0811 0.5518,0.35062 1.0977,0.87932 2.3184,2.24508 3.2789,4.27875 2.9677,6.2837 -0.1846,1.18953 -0.8544,2.39424 -2.0678,3.71944 -0.1913,0.20899 -0.7601,0.79495 -1.2639,1.30214 -1.4378,1.44746 -1.8575,1.9405 -2.2644,2.65988 -0.3804,0.67267 -0.5373,1.27196 -0.4884,1.86529 0.096,1.16314 0.809,2.39551 2.245,3.8796 0.511,0.52808 0.5861,0.66545 0.5861,1.07197 0,0.27603 -0.013,0.33774 -0.1123,0.52026 -0.2678,0.49356 -0.9177,0.78795 -1.5421,0.69845 z m -15.3164,-0.34157 c -0.405,-0.11253 -0.5856,-0.2509 -1.2422,-0.95193 -1.4885,-1.58925 -2.3316,-3.07054 -2.5859,-4.54357 -0.079,-0.45907 -0.058,-1.51365 0.038,-1.90883 0.2388,-0.97909 0.6841,-1.8475 1.4367,-2.80208 0.424,-0.53782 0.7919,-0.9367 1.7805,-1.93022 1.5159,-1.52343 1.9797,-2.06 2.364,-2.73441 0.3168,-0.55594 0.4106,-0.86323 0.4338,-1.42076 0.015,-0.35796 0,-0.52838 -0.046,-0.74172 -0.2466,-1.04231 -1.0371,-2.17488 -2.4337,-3.48682 -0.5291,-0.49701 -0.5885,-0.56551 -0.6899,-0.79548 -0.064,-0.14424 -0.077,-0.23861 -0.066,-0.46152 0.017,-0.34696 0.1363,-0.58664 0.407,-0.81684 0.4443,-0.37783 1.0889,-0.46799 1.6728,-0.23396 0.2228,0.0893 0.7377,0.53329 1.3943,1.20229 1.3005,1.32486 2.1008,2.54429 2.4631,3.75293 0.1839,0.61337 0.2277,0.97331 0.2021,1.66096 -0.034,0.91254 -0.2366,1.56847 -0.7643,2.47356 -0.5132,0.88037 -1.0462,1.5098 -2.6142,3.08695 -1.3876,1.39572 -1.8785,1.97345 -2.2688,2.67022 -0.5697,1.01689 -0.6251,1.93416 -0.1822,3.01449 0.3274,0.7986 1.1522,1.92799 2.0633,2.82499 0.1448,0.14254 0.3089,0.34075 0.3648,0.44047 0.09,0.1601 0.1016,0.22181 0.1015,0.52745 -1e-4,0.31702 -0.01,0.36216 -0.1133,0.5366 -0.1404,0.23621 -0.4199,0.46286 -0.7108,0.57633 -0.2673,0.10427 -0.7441,0.13318 -1.0043,0.0609 z"
           id="path8"
           inkscape:label="coffee"
           sodipodi:nodetypes="ssssscccssccscscsccsssssssscsscccssssssssssscacssasscscccscscacssssscsssssssssssccccssssscssssscccssccsscssssssssscssssssssssscssssccsssscscssssssssssssscsss" /><path
           style="fill:#000000"
           d="m 2414.9095,180.62226 c -2.5357,-1.62254 -4.5014,-3.94875 -6.7385,-5.93824 -0.3776,-0.33442 -0.5345,-0.49963 -0.6277,-0.66095 -0.168,-0.29107 -0.2437,-0.55666 -0.2437,-0.85561 0,-0.77746 0.5418,-1.43962 1.4242,-1.74073 l 0.2604,-0.0889 6.1989,-0.0165 6.1988,-0.0165 -0.4546,-0.55184 c -3.0834,-3.74256 -5.232,-8.16932 -6.4444,-13.27724 -0.8701,-3.66611 -1.2909,-7.52854 -1.3611,-12.49397 -0.021,-1.51964 -0.017,-1.71995 0.041,-1.90962 0.188,-0.61798 0.6623,-1.07288 1.3706,-1.31455 l 0.2604,-0.0889 29.4313,-0.008 c 26.1948,-0.007 29.4569,-0.003 29.665,0.0416 0.7805,0.16686 1.3858,0.68719 1.5938,1.37013 0.058,0.19109 0.062,0.41209 0.041,2.25094 l -0.024,2.03904 0.3777,-0.30835 c 2.2345,-1.82386 4.8034,-2.91224 7.5064,-3.18028 0.6494,-0.0644 1.9856,-0.0459 2.59,0.0358 2.1174,0.28631 4.019,1.11343 5.539,2.40923 3.2918,2.80605 4.4991,7.51355 3.1334,12.21721 -1.0346,3.56349 -3.3869,6.69515 -6.5357,8.70121 -3.6846,2.34746 -8.0077,2.81336 -11.6136,1.25163 -1.7774,-0.76975 -3.3262,-2.06106 -4.3835,-3.65474 l -0.2673,-0.40278 -0.2972,0.56886 c -1.0657,2.03979 -2.4517,4.07391 -4.0041,5.87634 l -0.3691,0.42855 6.359,0.0165 6.359,0.0165 0.2297,0.0738 c 0.3522,0.11311 0.6269,0.2684 0.8782,0.49639 0.645,0.58501 0.7726,1.39436 0.3361,2.13051 -0.093,0.15669 -0.3116,0.36628 -1.0335,0.99069 -2.2105,1.90589 -4.1774,4.1343 -6.7182,5.60272 -1.9323,1.11675 -3.9971,2.00447 -6.1305,2.65675 -4.2595,1.30233 -5.9521,1.47383 -23.4677,1.446 -7.5756,0.0485 -15.1367,0.29883 -22.5549,-1.45513 -2.4278,-0.60444 -4.6101,-1.4325 -6.5246,-2.65757 z m 54.4311,-1.66884 c 1.5576,-0.76325 2.7856,-1.96453 4.3321,-3.35541 l 0.5948,-0.53502 c -10.1102,1.74503 -20.2906,2.19601 -30.4749,2.18207 -9.809,-0.0134 -19.4119,-1.00768 -29.3461,-2.18207 l 0.4806,0.46152 c 1.0567,1.01478 2.7729,2.36927 3.6495,2.89683 6.5999,3.97198 16.8252,3.03353 25.333,3.12342 8.5204,0.09 19.2167,0.4538 25.431,-2.59134 z m -0.5647,-18.17776 c 1.2934,-3.36475 1.9976,-7.09589 2.2684,-12.01923 0.043,-0.77129 0.1152,-2.74088 0.116,-3.13998 l 5e-4,-0.239 h -26.8409 -26.8409 l 0.024,0.61811 c 0.059,1.51946 0.1039,2.42255 0.1576,3.17294 0.5568,7.78648 2.7231,13.2673 5.9898,18.34387 1.401,2.17715 2.709,3.95635 4.4781,5.50794 0,0 10.5366,1.14437 15.8269,1.19013 5.8368,0.0505 17.482,-1.0108 17.482,-1.0108 3.4142,-4.36915 5.0245,-6.40402 7.3385,-12.42398 z m 13.519,4.79612 c 1.8116,-0.36352 3.4764,-1.26465 4.9691,-2.68959 1.5448,-1.47463 2.7162,-3.48698 3.2556,-5.59299 0.2459,-0.9596 0.2937,-1.37124 0.2942,-2.53304 3e-4,-0.85024 -0.013,-1.13165 -0.07,-1.45049 -0.2566,-1.45252 -0.758,-2.61611 -1.5438,-3.5828 -0.9339,-1.14891 -2.2346,-1.89384 -3.7122,-2.12596 -0.4914,-0.0772 -1.5064,-0.077 -1.9991,4.1e-4 -2.2886,0.35964 -4.431,1.6406 -6.1564,3.68097 -2.1014,2.48484 -3.0952,5.89991 -2.5712,8.83493 0.5077,2.84317 2.3333,4.89402 4.842,5.43924 0.5208,0.11319 0.718,0.12838 1.5101,0.11631 0.6466,-0.01 0.8164,-0.0238 1.1812,-0.097 z M 2445.2,140.49691 c -0.2113,-0.0302 -0.5378,-0.15936 -0.6838,-0.27059 -0.053,-0.0406 -0.2378,-0.21486 -0.41,-0.38709 -1.4953,-1.49638 -2.4677,-3.04239 -2.8303,-4.49981 -0.098,-0.39514 -0.1068,-0.48767 -0.108,-1.18676 0,-0.66617 0.01,-0.80423 0.089,-1.13732 0.2317,-0.97428 0.7765,-1.98636 1.6061,-2.98339 0.3916,-0.47074 0.7336,-0.83341 1.7677,-1.87448 1.4045,-1.41415 1.815,-1.89793 2.2079,-2.60246 0.3753,-0.67286 0.4994,-1.19753 0.426,-1.80046 -0.1454,-1.1934 -0.9073,-2.32803 -2.6976,-4.01723 -0.1747,-0.16482 -0.3664,-0.37848 -0.426,-0.47481 -0.099,-0.15957 -0.1084,-0.20591 -0.1084,-0.52128 0,-0.30988 0.011,-0.36525 0.1052,-0.52855 0.2799,-0.48506 0.9188,-0.77465 1.5241,-0.6908 0.3677,0.051 0.6176,0.17201 0.9355,0.45317 0.7445,0.65855 1.651,1.62784 2.1405,2.28886 0.6132,0.8281 1.1111,1.83056 1.3231,2.66395 0.077,0.30461 0.088,0.43909 0.088,1.12083 3e-4,0.73446 -0.01,0.79505 -0.1084,1.16643 -0.3581,1.29015 -1.0605,2.36384 -2.5282,3.86433 -0.2287,0.23378 -0.6107,0.6179 -0.8489,0.85361 -1.664,1.64649 -2.3348,2.58038 -2.554,3.55529 -0.084,0.37236 -0.075,0.9785 0.02,1.3741 0.2429,1.01446 0.9343,2.08547 2.1735,3.36665 0.4169,0.43099 0.467,0.49796 0.5358,0.71559 0.1166,0.36885 0.026,0.7724 -0.245,1.08615 -0.3051,0.35383 -0.866,0.5414 -1.3937,0.46607 z m 7.9441,6.1e-4 c -0.2741,-0.0393 -0.5867,-0.17422 -0.7743,-0.33425 -0.258,-0.22008 -0.8458,-0.84452 -1.2467,-1.32446 -2.2383,-2.67956 -2.6464,-5.10218 -1.2616,-7.48823 0.3073,-0.52952 0.6366,-0.98596 1.1043,-1.53062 0.3068,-0.35734 0.6337,-0.69723 2.0358,-2.11662 1.2721,-1.28792 1.7759,-1.97286 2.0697,-2.81403 0.138,-0.39532 0.1717,-0.99051 0.08,-1.40705 -0.245,-1.10716 -1.0653,-2.26898 -2.6154,-3.704 -0.5217,-0.48293 -0.6742,-0.80799 -0.5821,-1.2404 0.1716,-0.80585 1.1551,-1.25103 2.0332,-0.9204 0.2153,0.0811 0.5518,0.35062 1.0977,0.87932 2.3184,2.24508 3.2789,4.27875 2.9677,6.28371 -0.1846,1.18952 -0.8544,2.39424 -2.0678,3.71943 -0.1913,0.20899 -0.7601,0.79495 -1.2639,1.30215 -1.4378,1.44746 -1.8575,1.94049 -2.2644,2.65987 -0.3804,0.67268 -0.5373,1.27197 -0.4884,1.86529 0.096,1.16314 0.809,2.39551 2.245,3.8796 0.511,0.52808 0.5861,0.66545 0.5861,1.07197 0,0.27603 -0.013,0.33774 -0.1123,0.52026 -0.2678,0.49356 -0.9177,0.78795 -1.5421,0.69846 z m -15.3164,-0.34157 c -0.405,-0.11253 -0.5856,-0.2509 -1.2422,-0.95193 -1.4885,-1.58925 -2.3316,-3.07054 -2.5859,-4.54357 -0.079,-0.45907 -0.058,-1.51365 0.038,-1.90883 0.2388,-0.97909 0.6841,-1.8475 1.4367,-2.80208 0.424,-0.53782 0.7919,-0.9367 1.7805,-1.93022 1.5159,-1.52343 1.9797,-2.06 2.364,-2.73441 0.3168,-0.55594 0.4106,-0.86323 0.4338,-1.42076 0.015,-0.35796 0,-0.52838 -0.046,-0.74172 -0.2466,-1.04231 -1.0371,-2.17488 -2.4337,-3.48682 -0.5291,-0.49701 -0.5885,-0.56551 -0.6899,-0.79548 -0.064,-0.14424 -0.077,-0.23861 -0.066,-0.46152 0.017,-0.34696 0.1363,-0.58664 0.407,-0.81684 0.4443,-0.37783 1.0889,-0.46799 1.6728,-0.23396 0.2228,0.0893 0.7377,0.53329 1.3943,1.20229 1.3005,1.32486 2.1008,2.54429 2.4631,3.75293 0.1839,0.61337 0.2277,0.97331 0.2021,1.66096 -0.034,0.91254 -0.2366,1.56847 -0.7643,2.47356 -0.5132,0.88037 -1.0462,1.5098 -2.6142,3.08695 -1.3876,1.39572 -1.8785,1.97345 -2.2688,2.67022 -0.5697,1.01689 -0.6251,1.93416 -0.1822,3.01449 0.3274,0.7986 1.1522,1.92799 2.0633,2.82499 0.1448,0.14254 0.3089,0.34075 0.3648,0.44047 0.09,0.1601 0.1016,0.22181 0.1015,0.52745 -10e-5,0.31702 -0.01,0.36216 -0.1133,0.5366 -0.1404,0.23621 -0.4199,0.46286 -0.7108,0.57633 -0.2673,0.10427 -0.7441,0.13318 -1.0043,0.0609 z"
           id="path8-9"
           inkscape:label="coffee"
           sodipodi:nodetypes="ssssscccssccscscsccsssssssscsscccssssssssssscacssasscscccscscacssssscsssssssssssccccssssscssssscccssccsscssssssssscssssssssssscssssccsssscscssssssssssssscsss" /></g><path
         id="path7-2"
         style="fill:#ffffff;stroke:#ff0000;stroke-width:0"
         d="m 1310,-1.475e-5 h 317.5 V 238.125 H 1310 Z" /><path
         id="path17"
         style="fill:#ffffff;stroke:#ff0000;stroke-width:0"
         d="M 1637.5,-1.85e-5 H 1955 V 238.125 h -317.5 z" /><path
         id="path18"
         style="fill:#ffffff;stroke:#ff0000;stroke-width:0"
         d="m 1965,-2.225e-5 h 317.5 V 238.125 H 1965 Z" /><circle
         style="fill:none;stroke:#1a1a1a;stroke-width:3.43958328;stroke-dasharray:none"
         id="path26"
         cx="2776.5142"
         cy="108.61105"
         r="47.372902" /><path
         id="path27"
         style="stroke-width:3.96875"
         d="m 2772.4334,92.473685 c -1.1474,-2.11816 -3.0548,-3.774111 -5.3961,-4.589979 -3.3082,-1.152811 -6.9803,-0.453258 -9.6329,1.835431 -2.4434,2.108271 -3.6799,5.26991 -3.347,8.445421 0.023,0.215474 2.7605,-3.694775 8.9107,-4.861287 6.9899,-1.32573 9.0291,0.495474 9.8933,0.338038"
         sodipodi:nodetypes="cssssc" /><path
         id="path28"
         style="stroke-width:3.96875"
         d="m 2781.9504,92.473685 c 1.1474,-2.11816 3.0548,-3.774111 5.3961,-4.589979 3.3082,-1.152811 6.9803,-0.453258 9.6329,1.835431 2.4434,2.108271 3.6799,5.26991 3.347,8.445421 -0.023,0.215474 -3.359,-3.694775 -9.5092,-4.861287 -6.9899,-1.32573 -8.4306,0.495474 -9.2948,0.338038"
         sodipodi:nodetypes="cssssc" /><path
         id="path29"
         style="stroke-width:12.7167"
         d="m 2747.5756,113.05836 c 2.1434,7.71381 7.5205,18.46884 14.0553,22.71669 9.2338,6.00219 20.7032,6.17761 30.0881,0.45912 8.6444,-5.26777 14.3101,-14.79932 15.2671,-25.43125 0.064,-0.7217 -10.2295,26.05644 -29.4361,25.74584 -21.8286,-0.35315 -27.1818,-23.49492 -29.8769,-23.55979"
         sodipodi:nodetypes="cssssc" /><path
         style="fill:none;stroke:#1a1a1a;stroke-width:2.80749;stroke-linecap:round;stroke-dasharray:none;stroke-opacity:1"
         d="m 2744.1476,115.99602 c 0,0 2.3129,-0.26229 4.0501,-1.85558 2.1146,-1.93951 2.71,-4.80751 2.71,-4.80751"
         id="path31"
         sodipodi:nodetypes="csc" /><path
         style="fill:none;stroke:#1a1a1a;stroke-width:2.80749;stroke-linecap:round;stroke-dasharray:none;stroke-opacity:1"
         d="m 2810.987,113.46851 c 0,0 -2.3277,-0.0227 -4.2197,-1.42864 -2.3031,-1.71144 -3.1907,-4.50288 -3.1907,-4.50288"
         id="path32"
         sodipodi:nodetypes="csc" /><path
         style="fill:none;stroke:#1a1a1a;stroke-width:3.43958328;stroke-linecap:round;stroke-dasharray:none;stroke-opacity:1"
         d="m 2732.7798,236.52631 c 0,0 -4.0431,-50.25239 7.9994,-70.67509 4.8235,-8.1803 14.5468,-13.40227 14.5468,-13.40227"
         id="path33"
         sodipodi:nodetypes="csc" /><path
         style="fill:none;stroke:#1a1a1a;stroke-width:3.43958328;stroke-linecap:round;stroke-dasharray:none;stroke-opacity:1"
         d="m 2821.8507,236.52631 c 0,0 4.0431,-50.25239 -7.9994,-70.67509 -4.8235,-8.1803 -14.5468,-13.40227 -14.5468,-13.40227"
         id="path34"
         sodipodi:nodetypes="csc" /><path
         style="fill:none;stroke:#1a1a1a;stroke-width:3.43958328;stroke-linecap:round;stroke-dasharray:none;stroke-opacity:1"
         d="m 2740.7793,165.85122 c 0,0 -23.6953,21.57147 -24.781,36.13689 -0.9515,12.76435 16.7815,34.5382 16.7815,34.5382"
         id="path41"
         sodipodi:nodetypes="cac" /><path
         style="fill:none;stroke:#1a1a1a;stroke-width:3.43958328;stroke-linecap:round;stroke-dasharray:none;stroke-opacity:1"
         d="m 2813.8514,165.85122 c 0,0 31.8776,-13.36402 36.8315,-27.96034 2.5692,-7.56993 -3.752,-43.149524 -3.752,-43.149524 0,0 -8.9332,-11.191277 -11.2565,-17.822631 -2.3405,-6.680407 -6.6921,-19.398786 -2.3452,-21.10575 5.9404,-2.332732 11.005,10.756532 13.1327,17.822632 1.4847,4.930652 -10e-5,21.574765 -10e-5,21.574765"
         id="path42"
         sodipodi:nodetypes="cscassc" /></g><g
       id="g12"
       inkscape:label="3"><path
         id="path6"
         style="opacity:1;fill:#ffffff;stroke:#ff0000;stroke-width:0"
         d="m 655.00002,-4.9000002e-6 h 317.5 V 238.125 h -317.5 z" /><g
         id="g10"
         transform="translate(0,-4.0802604)"><text
           xml:space="preserve"
           transform="matrix(0.26458333,0,0,0.26458333,652.13194,-33.283461)"
           id="text6"
           style="font-style:normal;font-variant:normal;font-weight:bold;font-stretch:normal;font-size:64px;line-height:1.2;font-family:Montserrat;-inkscape-font-specification:'Montserrat Bold';text-align:center;letter-spacing:0.09px;word-spacing:1px;writing-mode:lr-tb;direction:ltr;white-space:pre;shape-inside:url(#rect6);display:inline;opacity:1;fill:#1a1a1a;stroke:#ff0000;stroke-width:0"
           x="297.51935"
           y="0"><tspan
             x="381.42944"
             y="402.8216"
             id="tspan29"><tspan
               dx="0 0 0 0 0 0 -0.99998844 0.9999963 0 0 0 0 -1.0000037"
               id="tspan28">Coming soon:
</tspan></tspan><tspan
             x="303.69452"
             y="479.62158"
             id="tspan31"><tspan
               dx="0 0 0 0 0 -1.0000037 1.0000116"
               id="tspan30">yummy goodness.</tspan></tspan></text><path
           id="path9"
           style="fill:#000000;stroke-width:0.41382"
           d="m 803.67125,119.91045 c -0.4725,-0.0175 -0.81689,1.48473 -0.72141,1.6247 0.21786,0.31935 2.55837,0.33553 4.51084,1.12293 1.48026,0.59696 2.44783,1.73598 2.44223,1.80816 -6e-5,2.5e-4 8e-5,0.001 0,0.002 l -5.2e-4,5.2e-4 c -0.44269,0.71646 -0.69815,1.56091 -0.69815,2.46496 0,1.5434 0.74491,2.91279 1.89446,3.76877 -1.4971,0.0344 -3.34274,2.1e-4 -5.73505,-0.0889 -3.6357,-0.13542 -4.21648,-0.0854 -5.50768,0.47078 -1.3748,0.5922 -2.33172,1.55293 -2.86752,2.87941 -0.3385,0.83812 -0.3387,2.21728 0,3.05459 0.1344,0.33267 0.24443,0.62041 0.24443,0.63975 0,0.0193 -0.72432,0.036 -1.60972,0.0372 -2.0192,0.002 -2.93577,0.16587 -4.35167,0.77721 -0.8985,0.38796 -1.27891,0.63087 -2.05001,1.30794 -0.5207,0.45732 -1.14531,1.13097 -1.38751,1.49706 -1.5527,2.34633 -1.4771,5.39995 0.1881,7.59437 0.237,0.31247 0.43098,0.59765 0.43098,0.63407 0,0.0364 -0.11865,0.0668 -0.26355,0.0672 -0.5294,0.002 -2.54806,0.69592 -3.44216,1.18339 -1.0884,0.59331 -2.37745,1.67991 -3.08715,2.60242 -1.8995,2.46926 -2.1994,5.84458 -0.7612,8.56744 1.4295,2.7063 4.45359,4.6638 7.79539,5.0462 v 5.2e-4 c 0.1126,0.0129 1.03401,0.0245 2.58951,0.0346 0.1277,0.83979 0.87485,-0.36104 3.57187,16.29668 l 0.67541,4.17287 17.91364,0.0253 c 9.8524,0.0143 18.04492,0.0239 18.20612,0.0212 l 0.29249,-0.005 0.61133,-3.7331 c 1.09394,-6.68019 3.37016,-14.9734 3.63596,-16.71785 1.3982,-0.0583 2.65477,-0.14458 3.71347,-0.2682 2.9988,-0.35018 5.63624,-2.66478 6.84764,-5.21053 1.2484,-2.62302 0.92609,-5.71768 -0.84801,-8.14369 -1.3461,-1.84071 -4.15236,-3.5186 -6.41356,-3.83491 -0.24558,-0.0343 -0.44831,-0.0746 -0.46354,-0.0915 l -5.2e-4,-5.2e-4 v -5.2e-4 -5.1e-4 c 0,-0.0156 0.2383,-0.36717 0.5302,-0.78084 0.2917,-0.41367 0.67008,-1.12038 0.84078,-1.57096 0.2725,-0.71914 0.31126,-0.98838 0.31626,-2.20193 0,-1.06407 -0.0442,-1.52386 -0.21084,-1.99678 -0.6855,-1.95001 -2.28648,-3.62735 -4.28708,-4.4912 -1.4023,-0.60555 -2.34599,-0.77851 -4.25659,-0.78083 l -1.50636,-0.002 0.0816,-0.23047 c 0.4755,-1.33038 0.55597,-1.88325 0.49507,-3.40496 -0.072,-1.78457 -0.38339,-3.059 -1.13379,-4.63021 -1.2261,-2.5665 -3.04755,-4.0659 -4.98625,-4.15995 -0.277,-0.0135 -0.55645,0.002 -0.83665,0.047 -1.1178,0.17899 -1.71995,0.54138 -3.48505,2.09703 -1.18937,1.04815 -1.87047,1.56863 -2.67478,1.96267 0.43359,-0.71127 0.68317,-1.54674 0.68317,-2.44068 0,-2.59347 -2.10237,-4.69583 -4.69584,-4.69583 -1.15045,0 -2.20395,0.41344 -3.02049,1.10019 -0.60444,-0.55881 -1.10206,-1.39236 -3.03702,-2.03295 -1.52998,-0.50652 -3.66546,-1.32477 -4.14859,-1.39217 -0.008,-10e-4 -0.0152,-0.002 -0.0227,-0.002 z m 21.07571,8.1442 h 5.2e-4 c 0.2224,-0.0109 0.41197,0.10593 0.66817,0.31058 1.3767,1.09993 2.48086,3.7912 2.48616,6.06009 0,2.0642 -0.65914,3.0129 -2.25154,3.21893 -0.9662,0.12502 -2.08014,0.40641 -2.13424,1.43815 0.027,1.27555 1.57871,1.36633 1.57871,1.36633 l 4.30207,0.03 c 4.1464,0.0292 4.32535,0.0386 4.94595,0.25993 3.5328,1.2602 4.39107,5.20539 1.62057,7.44916 -0.7538,0.61046 -1.68501,1.0397 -2.45411,1.1312 -1.1466,0.13638 -2.8609,-0.009 -2.9068,1.49086 -0.038,1.2713 1.86707,1.42421 1.86707,1.42421 h 2.92127 c 1.6508,0 3.19078,0.0485 3.54138,0.11162 0.3411,0.0615 1.0541,0.29317 1.5844,0.51469 1.7077,0.71307 3.10885,2.20597 3.60185,3.83801 0.2097,0.69362 0.24171,2.14126 0.062,2.83911 -0.5483,2.14001 -2.9068,4.33681 -4.9227,4.55062 -0.7769,0.0824 -5.64628,0.18265 -9.08368,0.19224 -2.9838,0.008 -7.72321,-0.007 -16.02641,-0.002 -13.4569,0.009 -24.7589,-0.0217 -25.1163,-0.0682 -1.4808,-0.19284 -3.17433,-0.99723 -4.14703,-1.96991 -0.65,-0.64996 -1.28367,-1.68435 -1.52187,-2.4846 -0.2219,-0.74495 -0.22979,-2.27634 -0.015,-2.9807 0.5536,-1.81867 2.01061,-3.31924 3.94911,-4.06693 1.0624,-0.40978 1.71151,-0.47387 4.79041,-0.47387 h 2.92075 c 0,0 1.57525,-0.13931 1.55185,-1.32757 -0.048,-2.35031 -2.69217,-0.99492 -4.42247,-2.26033 -2.6701,-1.95273 -3.02476,-5.35196 -0.29766,-7.23005 1.2963,-0.89279 1.34928,-0.90058 6.24148,-0.93741 l 4.30206,-0.0326 c 0,0 1.68286,-0.0309 1.62626,-1.35754 -0.036,-0.83729 -0.36102,-1.07339 -2.22312,-1.49086 -1.9676,-0.44115 -2.5372,-2.64896 -0.9741,-3.776 0.749,-0.54008 1.06392,-0.56839 4.79402,-0.42633 7.1505,0.27233 10.4168,-0.0718 13.4829,-1.42213 1.3188,-0.58082 2.16823,-1.16642 3.80183,-2.61948 1.0215,-0.9086 1.48552,-1.28088 1.85622,-1.29915 z m -30.28342,38.96817 c 1.8051,0.007 3.96676,0.012 6.38876,0.016 0.71492,5.92622 1.6691,11.81748 2.81274,17.67334 h -2.68975 c -1.4794,0 -2.67991,-0.0279 -2.68976,-0.0589 -1.82448,-5.73366 -2.38906,-11.69665 -3.81424,-17.59582 z m 9.56376,0.0202 c 2.5163,0.003 5.23522,0.004 8.07082,0.003 l 0.0289,11.50576 0.03,6.16035 h -2.65823 -2.65772 c -0.95722,-6.16301 -2.03573,-11.55171 -2.81378,-17.66921 z m 11.35021,0.004 c 2.5384,0.009 5.30131,0.0492 8.07031,0.0822 -0.4807,4.48177 -1.444,12.51669 -2.76108,17.40359 -0.051,0.16387 -0.28154,0.17932 -2.68304,0.17932 h -2.62619 v -6.16035 z m 17.61339,0.10697 c -1.31011,6.15637 -2.12502,11.77969 -3.81734,17.55811 h -2.65875 -2.65875 c 1.40123,-8.82992 1.89633,-12.91783 2.77141,-17.55035 2.20927,0.0178 4.36833,0.0218 6.36343,-0.008 z" /><path
           id="path9-5"
           style="fill:#000000;stroke-width:0.41382"
           d="m 2113.6713,89.335937 c -0.4726,-0.0175 -0.8169,1.48473 -0.7215,1.6247 0.2179,0.31935 2.5584,0.33553 4.5109,1.12293 1.4802,0.59696 2.4478,1.73598 2.4422,1.80816 0,2.5e-4 10e-5,10e-4 0,0.002 l -5e-4,5.2e-4 c -0.4427,0.71646 -0.6982,1.56091 -0.6982,2.46496 0,1.5434 0.7449,2.91279 1.8945,3.768773 -1.4971,0.0344 -3.3427,2.1e-4 -5.735,-0.0889 -3.6358,-0.135423 -4.2165,-0.0854 -5.5077,0.47078 -1.3748,0.5922 -2.3318,1.55293 -2.8675,2.87941 -0.3386,0.83812 -0.3388,2.21728 0,3.05459 0.1344,0.33267 0.2444,0.62041 0.2444,0.63975 0,0.0193 -0.7243,0.036 -1.6097,0.0372 -2.0192,0.002 -2.9358,0.16587 -4.3517,0.77721 -0.8985,0.38796 -1.2789,0.63087 -2.05,1.30794 -0.5207,0.45732 -1.1453,1.13097 -1.3875,1.49706 -1.5527,2.34633 -1.4771,5.39995 0.1881,7.59437 0.237,0.31247 0.4309,0.59765 0.4309,0.63407 0,0.0364 -0.1186,0.0668 -0.2635,0.0672 -0.5294,0.002 -2.5481,0.69592 -3.4422,1.18339 -1.0884,0.59331 -2.3774,1.67991 -3.0871,2.60242 -1.8995,2.46926 -2.1994,5.84458 -0.7612,8.56744 1.4295,2.7063 4.4536,4.6638 7.7954,5.0462 v 5.2e-4 c 0.1126,0.0129 1.034,0.0245 2.5895,0.0346 0.1277,0.83979 0.8748,-0.36104 3.5719,16.29668 l 0.6754,4.17287 17.9136,0.0253 c 9.8524,0.0143 18.0449,0.0239 18.2061,0.0212 l 0.2925,-0.005 0.6113,-3.7331 c 1.094,-6.68019 3.3702,-14.9734 3.636,-16.71785 1.3982,-0.0583 2.6548,-0.14458 3.7135,-0.2682 2.9988,-0.35018 5.6362,-2.66478 6.8476,-5.21053 1.2484,-2.62302 0.9261,-5.71768 -0.848,-8.14369 -1.3461,-1.84071 -4.1524,-3.5186 -6.4136,-3.83491 -0.2455,-0.0343 -0.4483,-0.0746 -0.4635,-0.0915 l -5e-4,-5.2e-4 v -5.2e-4 -5.1e-4 c 0,-0.0156 0.2383,-0.36717 0.5302,-0.78084 0.2917,-0.41367 0.6701,-1.12038 0.8408,-1.57096 0.2725,-0.71914 0.3112,-0.98838 0.3162,-2.20193 0,-1.06407 -0.044,-1.52386 -0.2108,-1.99678 -0.6855,-1.95001 -2.2865,-3.62735 -4.2871,-4.4912 -1.4023,-0.60555 -2.346,-0.77851 -4.2566,-0.78083 l -1.5063,-0.002 0.082,-0.23047 c 0.4755,-1.33038 0.5559,-1.88325 0.495,-3.40496 -0.072,-1.78457 -0.3834,-3.059 -1.1338,-4.630213 -1.2261,-2.5665 -3.0475,-4.0659 -4.9862,-4.15995 -0.277,-0.0135 -0.5565,0.002 -0.8367,0.047 -1.1178,0.17899 -1.7199,0.54138 -3.485,2.09703 -1.1894,1.04815 -1.8705,1.56863 -2.6748,1.96267 0.4336,-0.71127 0.6832,-1.54674 0.6832,-2.44068 0,-2.59347 -2.1024,-4.69583 -4.6959,-4.69583 -1.1504,0 -2.2039,0.41344 -3.0205,1.10019 -0.6044,-0.55881 -1.102,-1.39236 -3.037,-2.03295 -1.53,-0.50652 -3.6654,-1.32477 -4.1486,-1.39217 -0.01,-0.001 -0.015,-0.002 -0.023,-0.002 z m 21.0757,8.1442 h 5e-4 c 0.2224,-0.0109 0.4119,0.10593 0.6682,0.31058 1.3766,1.09993 2.4808,3.791203 2.4861,6.060093 0,2.0642 -0.6591,3.0129 -2.2515,3.21893 -0.9662,0.12502 -2.0802,0.40641 -2.1343,1.43815 0.027,1.27555 1.5787,1.36633 1.5787,1.36633 l 4.3021,0.03 c 4.1464,0.0292 4.3254,0.0386 4.946,0.25993 3.5328,1.2602 4.391,5.20539 1.6205,7.44916 -0.7538,0.61046 -1.685,1.0397 -2.4541,1.1312 -1.1466,0.13638 -2.8609,-0.009 -2.9068,1.49086 -0.038,1.2713 1.8671,1.42421 1.8671,1.42421 h 2.9213 c 1.6508,0 3.1907,0.0485 3.5413,0.11162 0.3411,0.0615 1.0541,0.29317 1.5844,0.51469 1.7077,0.71307 3.1089,2.20597 3.6019,3.83801 0.2097,0.69362 0.2417,2.14126 0.062,2.83911 -0.5483,2.14001 -2.9068,4.33681 -4.9227,4.55062 -0.7769,0.0824 -5.6463,0.18265 -9.0837,0.19224 -2.9838,0.008 -7.7232,-0.007 -16.0264,-0.002 -13.4569,0.009 -24.7589,-0.0217 -25.1163,-0.0682 -1.4808,-0.19284 -3.1743,-0.99723 -4.147,-1.96991 -0.65,-0.64996 -1.2837,-1.68435 -1.5219,-2.4846 -0.2219,-0.74495 -0.2298,-2.27634 -0.015,-2.9807 0.5536,-1.81867 2.0106,-3.31924 3.9491,-4.06693 1.0624,-0.40978 1.7115,-0.47387 4.7904,-0.47387 h 2.9208 c 0,0 1.5752,-0.13931 1.5518,-1.32757 -0.048,-2.35031 -2.6921,-0.99492 -4.4224,-2.26033 -2.6701,-1.95273 -3.0248,-5.35196 -0.2977,-7.23005 1.2963,-0.89279 1.3493,-0.90058 6.2415,-0.93741 l 4.302,-0.0326 c 0,0 1.6829,-0.0309 1.6263,-1.35754 -0.036,-0.83729 -0.361,-1.07339 -2.2231,-1.49086 -1.9676,-0.44115 -2.5372,-2.64896 -0.9741,-3.776 0.749,-0.54008 1.0639,-0.56839 4.794,-0.42633 7.1505,0.27233 10.4168,-0.0718 13.4829,-1.42213 1.3188,-0.58082 2.1682,-1.16642 3.8018,-2.619483 1.0215,-0.9086 1.4855,-1.28088 1.8562,-1.29915 z m -30.2835,38.968173 c 1.8051,0.007 3.9668,0.012 6.3888,0.016 0.7149,5.92622 1.6691,11.81748 2.8127,17.67334 h -2.6897 c -1.4794,0 -2.6799,-0.0279 -2.6898,-0.0589 -1.8244,-5.73366 -2.389,-11.69665 -3.8142,-17.59582 z m 9.5638,0.0202 c 2.5163,0.003 5.2352,0.004 8.0708,0.003 l 0.029,11.50576 0.03,6.16035 h -2.6582 -2.6577 c -0.9573,-6.16301 -2.0358,-11.55171 -2.8138,-17.66921 z m 11.3502,0.004 c 2.5384,0.009 5.3013,0.0492 8.0703,0.0822 -0.4807,4.48177 -1.444,12.51669 -2.7611,17.40359 -0.051,0.16387 -0.2815,0.17932 -2.683,0.17932 h -2.6262 v -6.16035 z m 17.6134,0.10697 c -1.3101,6.15637 -2.125,11.77969 -3.8173,17.55811 h -2.6588 -2.6587 c 1.4012,-8.82992 1.8963,-12.91783 2.7714,-17.55035 2.2092,0.0178 4.3683,0.0218 6.3634,-0.008 z" /></g></g><path
       style="fill:#000000;stroke-width:0.0876591"
       d="m 498.46608,183.4295 c -6.54287,-0.6991 -13.44566,-0.83478 -19.29956,-4.35656 -4.66249,-1.27653 -10.86153,-0.76294 -13.55178,-5.85937 -2.90602,-5.19642 2.14593,-11.05058 5.50305,-12.82016 -3.97253,-4.30613 -5.95995,4.41554 -8.10843,6.76338 -3.31037,3.56392 -6.7659,7.14037 -8.92614,11.63606 -3.3072,4.23959 -11.53132,3.90271 -12.82872,-2.04987 -1.27433,-4.91755 -0.96345,-10.47247 -3.96025,-14.75495 -1.73274,-6.78604 2.45495,-12.99602 3.64371,-19.45988 1.38688,-5.5011 6.0874,-8.54732 9.86686,-11.96779 2.74581,-3.80641 4.34981,-9.61662 9.4875,-10.49094 4.15422,-1.66744 9.25465,-6.60735 13.44813,-2.25835 2.44625,2.15479 1.34361,10.53138 5.59134,5.62956 2.75682,-4.86856 7.51002,-5.72122 12.37782,-5.97472 5.88447,-1.26027 12.68399,-2.67862 17.92794,1.34904 4.83752,2.90503 11.15561,0.48975 15.52159,4.54429 3.24059,3.45676 9.61207,5.91091 8.61422,11.87989 -0.64313,5.39259 -7.5055,4.25946 -9.30122,8.39452 2.41743,2.76575 9.91551,5.42083 6.86654,11.08469 -4.9198,6.0318 5.59265,4.60659 4.14275,14.78735 -0.43808,3.07608 -1.17495,5.62594 -6.36544,6.80947 -7.4594,3.05824 -7.33396,0.56656 -14.96717,3.013 -6.37638,4.07013 -13.16394,4.1812 -15.68274,4.10134 z m 13.02923,-7.69149 c 3.32535,-2.67935 7.50548,1.66524 11.62122,-1.08026 4.1106,-0.93177 12.80159,-3.94472 7.81062,-9.54076 -2.58408,-1.63957 -2.72396,-6.64929 -6.98449,-4.0862 -6.12542,3.84403 -9.41962,-0.70748 -17.4471,4.87627 -6.02106,2.25504 -7.79437,-0.4293 -11.67977,-0.80177 -3.22926,-0.30958 -4.26883,-2.62918 -9.66179,-1.19044 -4.80573,-0.44359 -10.30608,-3.49525 -14.65439,0.12406 -4.17323,2.58906 -2.18153,9.62384 2.21961,10.56699 3.35306,0.068 6.90314,-0.79871 9.97379,1.35226 2.84113,1.78649 6.11538,1.86701 9.26694,1.39446 9.23483,3.21607 12.05068,2.54333 19.53536,-1.61461 z m -63.69122,2.87985 c 5.73651,-0.9834 5.27961,-9.13932 10.1558,-11.54744 3.13534,-4.07741 4.78949,-9.24417 8.35629,-12.97699 2.17046,-2.56787 2.43391,-12.72699 2.18157,-12.35861 -2.4341,-4.18264 2.80194,-6.10672 3.22116,-9.79045 1.1921,-3.94601 1.96198,-8.9783 -1.05453,-12.26636 -4.34803,-2.01496 -7.11094,3.95466 -11.26509,4.09852 -4.4659,3.32779 -5.84562,9.51134 -10.33006,12.86056 -5.49486,3.09395 -6.33305,6.84328 -5.14182,10.07008 0.3326,5.38696 -6.24997,6.32569 -3.22336,17.07089 0.71187,2.5273 5.89287,1.84765 2.91425,4.0844 -2.23607,3.78839 -0.78107,10.62175 4.18579,10.7554 z m -3.1829,-4.72113 c -4.37457,-2.79579 5.20538,-7.33303 2.54428,-1.75173 -0.36362,0.99453 -1.35223,2.5452 -2.54428,1.75173 z m 0.56766,-11.00631 c -5.63299,-1.42345 0.65039,-13.08855 3.64652,-7.20502 1.02488,2.66092 0.0355,8.10433 -3.64652,7.20502 z m 10.40888,-2.12073 c -6.13991,-0.17369 -4.36842,-11.49945 1.22495,-10.80895 5.46942,1.51994 1.67513,8.86806 -1.22495,10.80895 z m -7.52668,-15.78476 c -5.77834,-3.3358 6.40463,-10.87992 3.68907,-3.18055 -0.8252,1.46326 -2.11511,2.6929 -3.68907,3.18055 z m 11.1685,-10.45306 c -6.5159,-1.38422 0.76181,-12.75714 4.43456,-6.85893 1.17521,2.99918 -1.75572,6.28642 -4.43456,6.85893 z m 57.57771,23.81047 c 3.83805,-0.62622 8.7985,0.35617 11.38532,-3.4183 2.51398,-5.07349 -3.11723,-8.01809 -6.41426,-10.41835 -2.25759,-1.64353 -5.76739,-3.54706 -8.13807,-1.9882 -4.50329,2.64562 -5.75959,1.42049 -9.75914,3.66761 -2.10185,1.76306 -6.35159,1.40035 -11.54568,-0.0175 -11.92934,-0.85823 -9.89574,-5.11913 -18.06306,-1.30048 -2.36677,2.9382 -5.70557,5.82906 -2.56795,10.6791 3.03445,3.82958 8.60294,4.75503 12.93891,2.9585 2.28148,-1.94009 10.68379,3.88219 15.32669,3.91845 0.67991,0.0157 12.56823,-0.60626 16.83724,-4.08083 z M 505.3924,156.4552 c -6.51331,1.94019 -3.91819,-10.54334 1.59702,-7.65223 5.26498,0.24588 3.55219,9.37883 -1.38875,7.54292 z m 18.10804,-4.62329 c -5.30467,0.21615 0.79598,-7.72028 2.09293,-2.03514 0.26623,1.178 -0.97238,2.472 -2.09293,2.03514 z m -22.82744,-7.5536 c 4.19036,0.60368 7.38398,-3.49462 11.38456,-3.97195 3.05976,-3.1025 5.88638,1.25505 9.51858,-0.42078 3.44436,-0.5703 6.80925,-2.18022 9.18977,-4.90375 -0.39063,-5.77919 -6.94321,-8.02624 -10.6696,-11.00588 -4.70431,-1.17154 -10.07331,-0.40435 -14.06617,-3.79501 -2.92237,-1.37894 -9.16989,-0.82775 -18.54944,1.73212 -3.95014,-0.0862 -7.10489,4.71614 -9.72563,7.17065 -2.4434,2.36616 -10.76831,10.28529 -0.85005,11.59442 5.53753,0.11158 10.74661,2.70849 16.32136,2.52852 2.48562,0.32072 4.91769,1.20665 7.44662,1.07166 z m -5.97567,-5.74126 c -5.90036,2.32351 -6.26095,-9.30681 -0.15503,-7.55608 5.60674,-0.51067 6.93017,9.36546 0.15503,7.55608 z m 25.28992,-6.452 c -5.19998,4.09794 -8.80699,-9.16052 -1.99676,-6.88046 2.64567,0.60424 5.49075,5.24169 1.99676,6.88046 z m -36.0076,-1.03665 c -3.61686,-5.60733 8.37769,-10.09341 7.96001,-2.81203 -1.05083,3.26586 -5.42392,2.56367 -7.96001,2.81203 z m 19.99805,-5.09267 c -6.91306,-0.56243 2.3321,-9.80877 3.58166,-2.80499 0.30629,1.91798 -1.84547,4.06978 -3.58166,2.80499 z m -24.26545,26.33545 c -5.77834,-3.3358 8.33867,-7.14078 5.62311,0.55859 -0.8252,1.46326 -4.11362,0.37205 -5.62311,-0.55859 z m 9.525,17.72709 c -5.77834,-3.3358 8.33867,-7.14078 5.62311,0.55859 -0.8252,1.46326 -4.11362,0.37205 -5.62311,-0.55859 z m 29.09423,0.58932 c -3.0332,-3.17109 9.60144,-1.7054 5.89763,1.82135 -0.8252,1.46326 -7.73721,0.0426 -5.89763,-1.82135 z m -43.16268,1.59218 c -5.77834,-3.3358 3.34251,-3.40739 2.38384,-1.03359 -0.8252,1.46326 -0.87435,1.96423 -2.38384,1.03359 z"
       id="path11"
       sodipodi:nodetypes="cccccccccccccccccccsccccccccacccccccccccccccsccccccccccccccscsccaccccccsccccccccccccccccccccccccccccccccccccccccccc" /><path
       id="path12"
       style="fill:#000000;stroke-width:0.175207"
       d="m 158.92601,113.15643 c -3.68185,0.57219 -4.19523,5.54447 -1.93166,7.953 3.95775,2.02292 -1.61682,5.60066 1.30896,7.00784 0.40965,0.10592 0.84482,-0.004 1.21802,-0.1881 3.12709,-1.4724 2.77661,-5.90255 0.34675,-7.87187 -3.53348,-2.11032 2.67527,-5.88487 -0.94207,-6.90087 z m 13.86789,2.70939 c -3.68185,0.57219 -5.6277,3.09966 -3.36413,5.50819 2.05162,2.97598 -4.26265,5.60066 -1.33687,7.00784 0.40965,0.10592 0.84481,-0.004 1.21801,-0.1881 3.12709,-1.4724 5.42244,-5.90255 2.99258,-7.87187 -0.84758,-1.93704 4.10775,-3.44006 0.49041,-4.45606 z m -28.14712,0.14831 c -3.40829,1.58144 1.72371,2.27249 1.19683,4.32015 -2.08363,2.33257 0.89086,6.33872 4.21318,7.29206 0.39776,0.12156 0.84504,0.16057 1.23248,-0.009 2.66307,-1.85698 -3.98995,-3.43768 -2.44068,-6.70347 1.84924,-2.73954 -0.47584,-4.92344 -4.20181,-4.89944 z m 9.37876,14.34538 c -12.80977,0.61343 -26.26042,3.82279 -36.02623,12.61008 -1.79008,3.32879 -6.23452,3.13389 -7.83311,6.57945 -1.73875,4.14988 2.61092,7.7951 6.48229,7.8915 1.79281,4.60138 3.66267,9.2298 5.38107,13.87823 1.08536,3.07471 1.55623,7.12559 5.16351,8.27701 8.44447,3.33975 17.7281,3.26019 26.66142,3.83232 9.43014,0.0648 18.93034,0.004 28.24789,-1.6216 3.84435,-0.87317 8.41469,-1.24039 11.21172,-4.32584 1.99029,-5.72205 4.20901,-11.37813 6.47764,-17.00413 0.1623,-3.85175 4.1627,-2.92209 6.23527,-5.19296 3.01756,-2.41549 1.75509,-7.41975 -1.70739,-8.73435 -3.5768,-0.84374 -5.02611,-4.92807 -8.35142,-6.49004 -12.17157,-8.31889 -27.51233,-10.42888 -41.94266,-9.69967 z m 5.47563,2.41897 c 12.48838,0.1845 25.74834,2.39753 35.84743,10.26449 2.7784,2.91773 5.88164,5.10581 9.02942,7.28328 1.33115,4.0288 -3.73224,4.72129 -6.18929,5.17591 -1.06488,3.76912 -6.0793,3.73113 -8.84649,1.87431 -3.95967,-2.41703 -8.22306,0.0485 -11.3037,2.64479 -3.11342,1.95589 -6.0757,-0.63843 -8.86044,-1.74563 -3.46503,-1.36205 -6.35496,1.22918 -9.35963,2.36782 -1.06939,0.13134 -2.26801,0.11708 -3.27164,-0.38551 -2.90369,-1.96976 -6.78989,-3.36009 -10.00404,-1.17305 -2.56609,1.79524 -6.16884,2.12863 -8.57519,-0.13229 -2.49436,-2.19355 -6.09248,-3.58135 -9.22372,-1.79989 -2.67685,1.62089 -7.5989,2.55616 -9.07904,-1.03818 -1.93449,-1.72425 -8.92666,-1.58426 -6.02133,-6.42132 3.05368,-1.38852 5.37189,-3.42399 7.71839,-5.91902 10.59719,-8.60764 24.80535,-11.22486 38.13927,-10.99571 z m -14.49834,5.271 c -0.37067,0.0125 -0.77697,0.0879 -1.1777,0.21187 -0.8905,0.2754 -1.37155,0.97997 -2.59313,1.75752 -1.66975,1.9335 -8.80693,4.4792 -5.7583,7.08845 v -5.1e-4 c 0.35321,0.001 0.69149,0.24068 1.04231,-0.001 3.19849,-2.41931 6.21251,-5.16902 9.7591,-7.0962 0.63198,-1.47005 -0.16027,-1.99756 -1.27228,-1.96009 z m 13.77952,0.01 c -0.41269,0.0158 -0.9109,0.27307 -1.50171,0.86403 -0.2702,2.82108 -0.0181,5.76267 -0.0941,8.62945 0.31535,1.50795 -0.82457,3.87941 1.06453,4.55837 h 5.2e-4 c 0.71004,0.0805 1.62586,-0.0413 2.00608,-0.74 0.26632,-3.08913 0.0291,-6.29482 0.094,-9.4294 0.13405,-1.80494 -0.33133,-3.92996 -1.56942,-3.88245 z m 13.63225,0.0362 c -4.97002,0.53913 1.10164,3.25281 3.47782,4.90358 1.82747,1.26957 3.16829,2.94154 5.24619,4.12791 0.55789,0.22867 1.09242,-0.0292 1.52342,-0.33745 1.26345,-2.96546 -4.32174,-4.55483 -6.0756,-6.54378 -0.23619,-0.14725 -2.18587,-1.45829 -4.17183,-2.15026 z m 4.17183,2.15026 c 0.0113,0.007 0.0195,0.0114 0.0227,0.0129 l 5.2e-4,5.1e-4 h 5.2e-4 v -5.1e-4 l -5.2e-4,-5.2e-4 c -0.003,-0.003 -0.0163,-0.0139 -0.0413,-0.0331 0.006,0.007 0.012,0.0138 0.0181,0.0207 z m 9.01341,18.77508 c 0.36907,0.004 0.75511,0.0699 1.16272,0.21497 2.92574,1.54647 6.2305,2.45532 9.53223,1.6707 -1.31259,2.71637 -2.29266,5.57537 -3.2892,8.41809 -1.17902,2.49386 -1.24161,5.71692 -3.37551,7.60316 -7.21042,3.24967 -15.37004,3.31532 -23.13295,3.9119 -9.95693,0.26795 -19.94946,0.14048 -29.81265,-1.38803 -3.23124,-0.77146 -6.93112,-1.04577 -9.58546,-3.16363 -1.81256,-4.34928 -3.24163,-8.8646 -4.9072,-13.27774 -1.38356,-2.32798 -0.3729,-2.4195 2.01022,-1.85622 3.30667,0.50002 5.85367,-2.80551 9.0966,-1.92598 2.72203,1.65313 5.28493,4.08223 8.72143,4.03593 3.58882,0.53161 6.2464,-3.62971 9.76323,-2.41794 3.05372,1.66975 6.64402,3.42924 10.11204,1.81126 2.44576,-0.84853 4.89259,-3.36451 7.53753,-1.38131 2.69562,1.83206 6.1437,2.60756 9.22579,1.29966 2.59921,-0.53629 4.35768,-3.57974 6.94118,-3.55482 z m 1.87172,3.1104 c -1.59768,0.0774 -2.68356,3.8944 -3.22823,5.48959 -0.35597,2.7285 -3.86855,6.11942 -1.78077,8.38967 0.93236,0.37499 1.90953,-0.22322 2.30322,-1.08055 1.37653,-3.89906 3.21293,-7.67592 4.31602,-11.64736 -0.58424,-0.84828 -1.12116,-1.17504 -1.61024,-1.15135 z m -57.77632,0.0315 c -0.24402,0.006 -0.51195,0.0547 -0.80719,0.15089 -1.20778,2.05268 1.05755,4.38531 1.52446,6.55412 1.31898,2.26729 1.19552,5.62372 3.5512,7.13445 0.67595,0.2886 1.63136,0.0506 1.94665,-0.66197 -0.32447,-2.69328 -1.85716,-5.1445 -2.6944,-7.73958 -1.03368,-1.681 -1.16183,-5.50031 -3.52072,-5.43791 z m 29.1853,2.74763 c -0.25773,-0.005 -0.55823,0.0439 -0.90796,0.1571 -1.603,2.26839 -0.49045,5.66578 -0.8015,8.44806 0.27927,1.60176 -0.90285,4.22918 1.39061,4.6824 0.5955,0.10665 1.20807,-0.21313 1.60352,-0.64544 0.36167,-2.78398 0.11747,-5.66258 0.18087,-8.49095 0.0541,-1.46847 0.33854,-4.11837 -1.46554,-4.15117 z m -14.09837,0.062 c -0.48505,-0.002 -1.00659,0.46036 -1.53013,1.63091 1.19624,3.43838 0.32697,8.44065 3.10627,10.83913 3.61625,0.033 0.79262,-4.55127 0.90072,-6.47712 0.10806,-1.79913 -1.0217,-5.98683 -2.47686,-5.99292 z m 27.85567,0.006 c -0.54906,0.004 -1.13938,0.49305 -1.62988,1.73633 0.17384,3.39708 -3.06729,8.26554 -0.45268,10.72906 3.41188,0.18563 2.01771,-5.35296 3.12849,-7.44709 1.4912,-1.86351 0.35723,-5.02745 -1.04593,-5.0183 z" /><path
       id="path12-6"
       style="fill:#000000;stroke-width:0.175207"
       d="m 1468.926,83.91872 c -3.6818,0.57219 -4.1952,5.54447 -1.9316,7.953 3.9577,2.02292 -1.6169,5.60066 1.3089,7.00784 0.4097,0.10592 0.8448,-0.004 1.218,-0.1881 3.1271,-1.4724 2.7766,-5.90255 0.3468,-7.87187 -3.5335,-2.11032 2.6753,-5.88487 -0.9421,-6.90087 z m 13.8679,2.70939 c -3.6818,0.57219 -5.6277,3.09966 -3.3641,5.50819 2.0516,2.97598 -4.2627,5.60066 -1.3369,7.00784 0.4097,0.10592 0.8448,-0.004 1.218,-0.1881 3.1271,-1.4724 5.4225,-5.90255 2.9926,-7.87187 -0.8476,-1.93704 4.1077,-3.44006 0.4904,-4.45606 z m -28.1471,0.14831 c -3.4083,1.58144 1.7237,2.27249 1.1968,4.32015 -2.0836,2.33257 0.8909,6.33872 4.2132,7.29206 0.3978,0.12156 0.845,0.16057 1.2325,-0.009 2.663,-1.85698 -3.99,-3.43768 -2.4407,-6.70347 1.8492,-2.73954 -0.4758,-4.92344 -4.2018,-4.89944 z m 9.3787,14.34538 c -12.8097,0.61343 -26.2604,3.82279 -36.0262,12.61008 -1.7901,3.32879 -6.2345,3.13389 -7.8331,6.57945 -1.7387,4.14988 2.6109,7.7951 6.4823,7.8915 1.7928,4.60138 3.6627,9.2298 5.3811,13.87823 1.0853,3.07471 1.5562,7.12559 5.1635,8.27701 8.4444,3.33975 17.7281,3.26019 26.6614,3.83232 9.4301,0.0648 18.9303,0.004 28.2479,-1.6216 3.8443,-0.87317 8.4147,-1.24039 11.2117,-4.32584 1.9903,-5.72205 4.209,-11.37813 6.4776,-17.00413 0.1623,-3.85175 4.1627,-2.92209 6.2353,-5.19296 3.0176,-2.41549 1.7551,-7.41975 -1.7074,-8.73435 -3.5768,-0.84374 -5.0261,-4.92807 -8.3514,-6.49004 -12.1716,-8.31889 -27.5123,-10.42888 -41.9427,-9.69967 z m 5.4757,2.41897 c 12.4884,0.1845 25.7483,2.39753 35.8474,10.26449 2.7784,2.91773 5.8816,5.10581 9.0294,7.28328 1.3312,4.0288 -3.7322,4.72129 -6.1893,5.17591 -1.0648,3.76912 -6.0793,3.73113 -8.8465,1.87431 -3.9596,-2.41703 -8.223,0.0485 -11.3037,2.64479 -3.1134,1.95589 -6.0757,-0.63843 -8.8604,-1.74563 -3.465,-1.36205 -6.355,1.22918 -9.3596,2.36782 -1.0694,0.13134 -2.268,0.11708 -3.2717,-0.38551 -2.9037,-1.96976 -6.7899,-3.36009 -10.004,-1.17305 -2.5661,1.79524 -6.1688,2.12863 -8.5752,-0.13229 -2.4944,-2.19355 -6.0925,-3.58135 -9.2237,-1.79989 -2.6769,1.62089 -7.5989,2.55616 -9.0791,-1.03818 -1.9344,-1.72425 -8.9266,-1.58426 -6.0213,-6.42132 3.0537,-1.38852 5.3719,-3.42399 7.7184,-5.91902 10.5972,-8.60764 24.8054,-11.22486 38.1393,-10.99571 z m -14.4984,5.271 c -0.3706,0.0125 -0.7769,0.0879 -1.1777,0.21187 -0.8905,0.2754 -1.3715,0.97997 -2.5931,1.75752 -1.6697,1.9335 -8.8069,4.4792 -5.7583,7.08845 v -5.1e-4 c 0.3532,10e-4 0.6915,0.24068 1.0423,-0.001 3.1985,-2.41931 6.2125,-5.16902 9.7591,-7.0962 0.632,-1.47005 -0.1603,-1.99756 -1.2723,-1.96009 z m 13.7796,0.01 c -0.4127,0.0158 -0.9109,0.27307 -1.5018,0.86403 -0.2702,2.82108 -0.018,5.76267 -0.094,8.62945 0.3154,1.50795 -0.8245,3.87941 1.0646,4.55837 h 5e-4 c 0.71,0.0805 1.6259,-0.0413 2.0061,-0.74 0.2663,-3.08913 0.029,-6.29482 0.094,-9.4294 0.134,-1.80494 -0.3314,-3.92996 -1.5694,-3.88245 z m 13.6322,0.0362 c -4.97,0.53913 1.1016,3.25281 3.4778,4.90358 1.8275,1.26957 3.1683,2.94154 5.2462,4.12791 0.5579,0.22867 1.0924,-0.0292 1.5234,-0.33745 1.2635,-2.96546 -4.3217,-4.55483 -6.0756,-6.54378 -0.2362,-0.14725 -2.1858,-1.45829 -4.1718,-2.15026 z m 4.1718,2.15026 c 0.011,0.007 0.02,0.0114 0.023,0.0129 l 6e-4,5.1e-4 h 5e-4 v -5.1e-4 l -5e-4,-5.2e-4 c 0,-0.003 -0.016,-0.0139 -0.041,-0.0331 0.01,0.007 0.012,0.0138 0.018,0.0207 z m 9.0134,18.77508 c 0.3691,0.004 0.7552,0.0699 1.1628,0.21497 2.9257,1.54647 6.2305,2.45532 9.5322,1.6707 -1.3126,2.71637 -2.2927,5.57537 -3.2892,8.41809 -1.179,2.49386 -1.2416,5.71692 -3.3755,7.60316 -7.2104,3.24967 -15.3701,3.31532 -23.133,3.9119 -9.9569,0.26795 -19.9494,0.14048 -29.8126,-1.38803 -3.2313,-0.77146 -6.9311,-1.04577 -9.5855,-3.16363 -1.8125,-4.34928 -3.2416,-8.8646 -4.9072,-13.27774 -1.3835,-2.32798 -0.3729,-2.4195 2.0102,-1.85622 3.3067,0.50002 5.8537,-2.80551 9.0966,-1.92598 2.7221,1.65313 5.285,4.08223 8.7215,4.03593 3.5888,0.53161 6.2464,-3.62971 9.7632,-2.41794 3.0537,1.66975 6.644,3.42924 10.112,1.81126 2.4458,-0.84853 4.8926,-3.36451 7.5376,-1.38131 2.6956,1.83206 6.1437,2.60756 9.2258,1.29966 2.5992,-0.53629 4.3576,-3.57974 6.9411,-3.55482 z m 1.8718,3.1104 c -1.5977,0.0774 -2.6836,3.8944 -3.2283,5.48959 -0.3559,2.7285 -3.8685,6.11942 -1.7807,8.38967 0.9323,0.37499 1.9095,-0.22322 2.3032,-1.08055 1.3765,-3.89906 3.2129,-7.67592 4.316,-11.64736 -0.5842,-0.84828 -1.1212,-1.17504 -1.6102,-1.15135 z m -57.7764,0.0315 c -0.244,0.006 -0.5119,0.0547 -0.8071,0.15089 -1.2078,2.05268 1.0575,4.38531 1.5244,6.55412 1.319,2.26729 1.1955,5.62372 3.5512,7.13445 0.676,0.2886 1.6314,0.0506 1.9467,-0.66197 -0.3245,-2.69328 -1.8572,-5.1445 -2.6944,-7.73958 -1.0337,-1.681 -1.1619,-5.50031 -3.5208,-5.43791 z m 29.1853,2.74763 c -0.2577,-0.005 -0.5582,0.0439 -0.9079,0.1571 -1.603,2.26839 -0.4905,5.66578 -0.8015,8.44806 0.2793,1.60176 -0.9029,4.22918 1.3906,4.6824 0.5955,0.10665 1.2081,-0.21313 1.6035,-0.64544 0.3617,-2.78398 0.1175,-5.66258 0.1809,-8.49095 0.054,-1.46847 0.3385,-4.11837 -1.4656,-4.15117 z m -14.0983,0.062 c -0.4851,-0.002 -1.0066,0.46036 -1.5302,1.63091 1.1963,3.43838 0.327,8.44065 3.1063,10.83913 3.6163,0.033 0.7926,-4.55127 0.9007,-6.47712 0.1081,-1.79913 -1.0217,-5.98683 -2.4768,-5.99292 z m 27.8556,0.006 c -0.549,0.004 -1.1393,0.49305 -1.6298,1.73633 0.1738,3.39708 -3.0673,8.26554 -0.4527,10.72906 3.4119,0.18563 2.0177,-5.35296 3.1285,-7.44709 1.4912,-1.86351 0.3572,-5.02745 -1.046,-5.0183 z" /><path
       style="fill:#000000;stroke-width:0.0876591"
       d="m 1808.4661,152.73769 c -6.5429,-0.6991 -13.4457,-0.83478 -19.2996,-4.35656 -4.6625,-1.27653 -10.8615,-0.76294 -13.5518,-5.85937 -2.906,-5.19642 2.146,-11.05058 5.5031,-12.82016 -3.9725,-4.30613 -5.96,4.41554 -8.1084,6.76338 -3.3104,3.56392 -6.7659,7.14037 -8.9262,11.63606 -3.3072,4.23959 -11.5313,3.90271 -12.8287,-2.04987 -1.2743,-4.91755 -0.9634,-10.47247 -3.9602,-14.75495 -1.7328,-6.78604 2.4549,-12.99602 3.6437,-19.45988 1.3868,-5.5011 6.0874,-8.54732 9.8668,-11.967788 2.7458,-3.80641 4.3498,-9.61662 9.4875,-10.49094 4.1542,-1.66744 9.2547,-6.60735 13.4482,-2.25835 2.4462,2.15479 1.3436,10.53138 5.5913,5.62956 2.7568,-4.86856 7.51,-5.72122 12.3778,-5.97472 5.8845,-1.26027 12.684,-2.67862 17.9279,1.34904 4.8376,2.90503 11.1557,0.48975 15.5216,4.54429 3.2406,3.45676 9.6121,5.91091 8.6143,11.879888 -0.6432,5.39259 -7.5055,4.25946 -9.3013,8.39452 2.4175,2.76575 9.9156,5.42083 6.8666,11.08469 -4.9198,6.0318 5.5926,4.60659 4.1427,14.78735 -0.438,3.07608 -1.1749,5.62594 -6.3654,6.80947 -7.4594,3.05824 -7.334,0.56656 -14.9672,3.013 -6.3764,4.07013 -13.1639,4.1812 -15.6827,4.10134 z m 13.0292,-7.69149 c 3.3254,-2.67935 7.5055,1.66524 11.6212,-1.08026 4.1106,-0.93177 12.8016,-3.94472 7.8107,-9.54076 -2.5841,-1.63957 -2.724,-6.64929 -6.9845,-4.0862 -6.1255,3.84403 -9.4197,-0.70748 -17.4471,4.87627 -6.0211,2.25504 -7.7944,-0.4293 -11.6798,-0.80177 -3.2293,-0.30958 -4.2688,-2.62918 -9.6618,-1.19044 -4.8057,-0.44359 -10.3061,-3.49525 -14.6544,0.12406 -4.1732,2.58906 -2.1815,9.62384 2.2196,10.56699 3.3531,0.068 6.9032,-0.79871 9.9738,1.35226 2.8411,1.78649 6.1154,1.86701 9.267,1.39446 9.2348,3.21607 12.0506,2.54333 19.5353,-1.61461 z m -63.6912,2.87985 c 5.7365,-0.9834 5.2796,-9.13932 10.1558,-11.54744 3.1353,-4.07741 4.7895,-9.24417 8.3563,-12.97699 2.1704,-2.56787 2.4339,-12.72699 2.1816,-12.35861 -2.4341,-4.18264 2.8019,-6.10672 3.2211,-9.79045 1.1921,-3.946008 1.962,-8.978298 -1.0545,-12.266358 -4.348,-2.01496 -7.111,3.95466 -11.2651,4.09852 -4.4659,3.32779 -5.8456,9.511338 -10.3301,12.860558 -5.4948,3.09395 -6.333,6.84328 -5.1418,10.07008 0.3326,5.38696 -6.25,6.32569 -3.2233,17.07089 0.7118,2.5273 5.8928,1.84765 2.9142,4.0844 -2.2361,3.78839 -0.7811,10.62175 4.1858,10.7554 z m -3.1829,-4.72113 c -4.3746,-2.79579 5.2054,-7.33303 2.5443,-1.75173 -0.3636,0.99453 -1.3523,2.5452 -2.5443,1.75173 z m 0.5677,-11.00631 c -5.633,-1.42345 0.6503,-13.08855 3.6465,-7.20502 1.0249,2.66092 0.036,8.10433 -3.6465,7.20502 z m 10.4088,-2.12073 c -6.1399,-0.17369 -4.3684,-11.49945 1.225,-10.80895 5.4694,1.51994 1.6751,8.86806 -1.225,10.80895 z m -7.5266,-15.78476 c -5.7784,-3.3358 6.4046,-10.87992 3.689,-3.18055 -0.8252,1.46326 -2.1151,2.6929 -3.689,3.18055 z m 11.1685,-10.45306 c -6.516,-1.38422 0.7618,-12.757138 4.4345,-6.858928 1.1752,2.99918 -1.7557,6.286418 -4.4345,6.858928 z m 57.5777,23.81047 c 3.838,-0.62622 8.7985,0.35617 11.3853,-3.4183 2.514,-5.07349 -3.1172,-8.01809 -6.4143,-10.41835 -2.2576,-1.64353 -5.7674,-3.54706 -8.1381,-1.9882 -4.5032,2.64562 -5.7595,1.42049 -9.7591,3.66761 -2.1018,1.76306 -6.3516,1.40035 -11.5457,-0.0175 -11.9293,-0.85823 -9.8957,-5.11913 -18.063,-1.30048 -2.3668,2.9382 -5.7056,5.82906 -2.568,10.6791 3.0345,3.82958 8.603,4.75503 12.9389,2.9585 2.2815,-1.94009 10.6838,3.88219 15.3267,3.91845 0.6799,0.0157 12.5683,-0.60626 16.8373,-4.08083 z m -11.4249,-1.88714 c -6.5133,1.94019 -3.9182,-10.54334 1.597,-7.65223 5.265,0.24588 3.5522,9.37883 -1.3887,7.54292 z m 18.108,-4.62329 c -5.3046,0.21615 0.796,-7.72028 2.093,-2.03514 0.2662,1.178 -0.9724,2.472 -2.093,2.03514 z m -22.8274,-7.5536 c 4.1904,0.60368 7.384,-3.49462 11.3846,-3.97195 3.0597,-3.1025 5.8863,1.25505 9.5185,-0.42078 3.4444,-0.5703 6.8093,-2.18022 9.1898,-4.90375 -0.3906,-5.779188 -6.9432,-8.026238 -10.6696,-11.005878 -4.7043,-1.17154 -10.0733,-0.40435 -14.0662,-3.79501 -2.9223,-1.37894 -9.1698,-0.82775 -18.5494,1.73212 -3.9501,-0.0862 -7.1049,4.71614 -9.7256,7.17065 -2.4434,2.366158 -10.7683,10.285288 -0.8501,11.594418 5.5376,0.11158 10.7466,2.70849 16.3214,2.52852 2.4856,0.32072 4.9177,1.20665 7.4466,1.07166 z m -5.9757,-5.74126 c -5.9003,2.32351 -6.2609,-9.306808 -0.155,-7.55608 5.6067,-0.510668 6.9302,9.36546 0.155,7.55608 z m 25.2899,-6.452 c -5.1999,4.09794 -8.8069,-9.160518 -1.9967,-6.880458 2.6457,0.60424 5.4907,5.24169 1.9967,6.880458 z m -36.0075,-1.03665 c -3.6169,-5.607328 8.3776,-10.093408 7.96,-2.812028 -1.0509,3.265858 -5.424,2.563668 -7.96,2.812028 z m 19.998,-5.092668 c -6.9131,-0.56243 2.3321,-9.80877 3.5817,-2.80499 0.3063,1.91798 -1.8455,4.06978 -3.5817,2.80499 z m -24.2654,26.335448 c -5.7784,-3.3358 8.3386,-7.14078 5.6231,0.55859 -0.8252,1.46326 -4.1137,0.37205 -5.6231,-0.55859 z m 9.5249,17.72709 c -5.7783,-3.3358 8.3387,-7.14078 5.6232,0.55859 -0.8252,1.46326 -4.1137,0.37205 -5.6232,-0.55859 z m 29.0943,0.58932 c -3.0332,-3.17109 9.6014,-1.7054 5.8976,1.82135 -0.8252,1.46326 -7.7372,0.0426 -5.8976,-1.82135 z m -43.1627,1.59218 c -5.7783,-3.3358 3.3425,-3.40739 2.3838,-1.03359 -0.8252,1.46326 -0.8743,1.96423 -2.3838,1.03359 z"
       id="path11-2"
       sodipodi:nodetypes="cccccccccccccccccccsccccccccacccccccccccccccsccccccccccccccscsccaccccccsccccccccccccccccccccccccccccccccccccccccccc" /></g><metadata
     id="metadata1"><rdf:RDF><cc:Work
         rdf:about=""><dc:title>Food  Blog Image Placeholder</dc:title><dc:description>This image is part of a collection of placeholder images to use during development, or in place of any missing recipe images. The size is 1200 x 900 px.</dc:description><dc:date>2026</dc:date><dc:creator><cc:Agent><dc:title>Lotus Detalosi</dc:title></cc:Agent></dc:creator><dc:rights><cc:Agent><dc:title>Copyright 2026 Lotus Detalosi.  All rights reserved.</dc:title></cc:Agent></dc:rights><dc:contributor><cc:Agent><dc:title>Lotus Detalosi</dc:title></cc:Agent></dc:contributor></cc:Work></rdf:RDF></metadata></svg>
